# xmcd CD database file
#
# Track frame offsets:
#	150
#	22048
#	36679
#	52302
#	68911
#	78892
#	99221
#	116225
#	130852
#	149446
#	161925
#	178475
#	197237
#	217302
#
# Disc length: 3167 seconds
#
# Revision: 0
# Processed by: cddbd v1.5.2PL0 Copyright (c) Steve Scherf et al.
# Submitted via: CDex 1.70beta2
#
DISCID=e70c5d0e
DTITLE=Renato Teixeira and Sergio Reis - Amizade Sincera
DYEAR=2010
DGENRE=Country
TTITLE0=Comitiva Esperança
TTITLE1=Amanheceu, Peguei a Viola
TTITLE2=O Menino da Porteira
TTITLE3=Amora
TTITLE4=Boiadeiro
TTITLE5=Frete
TTITLE6=Vida Boa
TTITLE7=E Quando o Dia Nascer
TTITLE8=Tristeza do Jeca
TTITLE9=Trem do Pantanal
TTITLE10=Esse é meu destino
TTITLE11=Tocando em Frente
TTITLE12=Romaria
TTITLE13=Embora
EXTD=YEAR: 2010
EXTT0=
EXTT1=
EXTT2=
EXTT3=
EXTT4=
EXTT5=
EXTT6=
EXTT7=
EXTT8=
EXTT9=
EXTT10=
EXTT11=
EXTT12=
EXTT13=
PLAYORDER=
